<?xml version="1.0" encoding="UTF-8" standalone="no"?>
<!-- Created with Inkscape (http://www.inkscape.org/) -->

<svg
   xmlns:ns0="http://www.iki.fi/pav/software/textext/"
   xmlns:dc="http://purl.org/dc/elements/1.1/"
   xmlns:cc="http://creativecommons.org/ns#"
   xmlns:rdf="http://www.w3.org/1999/02/22-rdf-syntax-ns#"
   xmlns:svg="http://www.w3.org/2000/svg"
   xmlns="http://www.w3.org/2000/svg"
   xmlns:sodipodi="http://sodipodi.sourceforge.net/DTD/sodipodi-0.dtd"
   xmlns:inkscape="http://www.inkscape.org/namespaces/inkscape"
   width="194.66882"
   height="43.01968"
   id="svg2"
   version="1.1"
   inkscape:version="0.48.3.1 r9886"
   sodipodi:docname="nxtee_replace.svg"
   inkscape:export-filename="/home/wintersb/Development/HDRI/pnitools/doc/info/pics/nxtee_append.png"
   inkscape:export-xdpi="600"
   inkscape:export-ydpi="600">
  <sodipodi:namedview
     id="base"
     pagecolor="#ffffff"
     bordercolor="#666666"
     borderopacity="1.0"
     inkscape:pageopacity="0.0"
     inkscape:pageshadow="2"
     inkscape:zoom="4.3770473"
     inkscape:cx="51.385877"
     inkscape:cy="-35.225017"
     inkscape:document-units="px"
     inkscape:current-layer="layer1"
     showgrid="true"
     inkscape:window-width="1920"
     inkscape:window-height="1144"
     inkscape:window-x="1600"
     inkscape:window-y="27"
     inkscape:window-maximized="1"
     fit-margin-top="0"
     fit-margin-left="0"
     fit-margin-right="0"
     fit-margin-bottom="0">
    <inkscape:grid
       originy="-287.92945mm"
       originx="-2.0423333mm"
       type="xygrid"
       id="grid2985"
       units="mm"
       empspacing="4"
       visible="true"
       enabled="true"
       snapvisiblegridlinesonly="true" />
  </sodipodi:namedview>
  <defs
     id="defs4">
    <marker
       style="overflow:visible"
       id="Arrow2Lend"
       refX="0"
       refY="0"
       orient="auto"
       inkscape:stockid="Arrow2Lend">
      <path
         inkscape:connector-curvature="0"
         transform="matrix(-1.1,0,0,-1.1,-1.1,0)"
         d="M 8.7185878,4.0337352 -2.2072895,0.01601326 8.7185884,-4.0017078 c -1.7454984,2.3720609 -1.7354408,5.6174519 -6e-7,8.035443 z"
         style="fill-rule:evenodd;stroke-width:0.625;stroke-linejoin:round"
         id="path4664" />
    </marker>
    <marker
       style="overflow:visible"
       id="Arrow1Lstart"
       refX="0"
       refY="0"
       orient="auto"
       inkscape:stockid="Arrow1Lstart">
      <path
         inkscape:connector-curvature="0"
         transform="matrix(0.8,0,0,0.8,10,0)"
         style="fill-rule:evenodd;stroke:#000000;stroke-width:1pt"
         d="M 0,0 5,-5 -12.5,0 5,5 0,0 z"
         id="path4643" />
    </marker>
    <inkscape:path-effect
       nr_y="6"
       nr_x="3"
       is_visible="true"
       id="path-effect3846"
       effect="construct_grid" />
    <inkscape:path-effect
       nr_y="3"
       nr_x="3"
       is_visible="true"
       id="path-effect3846-2"
       effect="construct_grid" />
    <marker
       style="overflow:visible"
       id="Arrow2Lend-1"
       refX="0"
       refY="0"
       orient="auto"
       inkscape:stockid="Arrow2Lend">
      <path
         inkscape:connector-curvature="0"
         transform="matrix(-1.1,0,0,-1.1,-1.1,0)"
         d="M 8.7185878,4.0337352 -2.2072895,0.01601326 8.7185884,-4.0017078 c -1.7454984,2.3720609 -1.7354408,5.6174519 -6e-7,8.035443 z"
         style="fill-rule:evenodd;stroke-width:0.625;stroke-linejoin:round"
         id="path4664-7" />
    </marker>
  </defs>
  <metadata
     id="metadata7">
    <rdf:RDF>
      <cc:Work
         rdf:about="">
        <dc:format>image/svg+xml</dc:format>
        <dc:type
           rdf:resource="http://purl.org/dc/dcmitype/StillImage" />
        <dc:title />
      </cc:Work>
    </rdf:RDF>
  </metadata>
  <g
     transform="translate(-7.2366143,10.879943)"
     inkscape:label="Layer 1"
     inkscape:groupmode="layer"
     id="layer1">
    <g
       transform="translate(0.23000432,-21.259843)"
       id="g3792">
      <g
         style="font-style:normal;font-variant:normal;font-weight:normal;font-stretch:normal;letter-spacing:normal;word-spacing:normal;text-anchor:start;fill:none;stroke:#000000;stroke-linecap:butt;stroke-linejoin:miter;stroke-miterlimit:10.43299961;stroke-opacity:1;stroke-dasharray:none;stroke-dashoffset:0"
         ns0:preamble=""
         ns0:text="\\begin{verbatim}\n2.0\t4.5\t8.8\n\\end{verbatim}"
         word-spacing="normal"
         letter-spacing="normal"
         font-size-adjust="none"
         font-stretch="normal"
         font-weight="normal"
         font-variant="normal"
         font-style="normal"
         stroke-miterlimit="10.433"
         xml:space="preserve"
         transform="matrix(1,0,0,-1,-216.86339,734.56982)"
         id="g3193">
<path
   id="path3195"
   d="m 224.1,707.7 -0.01,-0.01 -0.01,0 -0.01,-0.02 -0.02,-0.01 -0.01,-0.01 -0.01,-0.01 -0.01,-0.01 0,0 -0.01,-0.01 0,-0.01 -0.01,-0.01 0,0 -0.01,-0.01 0,-0.01 -0.01,-0.01 0,0 -0.01,-0.01 0,-0.01 0,-0.01 -0.01,-0.01 0,-0.01 0,-0.01 0,-0.01 -0.01,-0.01 0,-0.01 0,-0.01 0,-0.01 0,-0.01 0,-0.02 c 0,-0.31 0.25,-0.31 0.41,-0.31 h 3.37 c 0.33,0 0.4,0.09 0.4,0.41 v 0.26 c 0,0.19 0,0.41 -0.34,0.41 -0.35,0 -0.35,-0.19 -0.35,-0.47 h -2.37 c 0.59,0.51 1.55,1.25 1.97,1.65 0.63,0.56 1.09,1.19 1.09,1.99 0,1.19 -1.01,1.93 -2.22,1.93 -1.17,0 -1.96,-0.81 -1.96,-1.65 0,-0.37 0.28,-0.48 0.45,-0.48 0.21,0 0.44,0.17 0.44,0.44 0,0.12 -0.05,0.25 -0.14,0.32 0.15,0.46 0.61,0.77 1.16,0.77 0.82,0 1.58,-0.46 1.58,-1.33 0,-0.7 -0.49,-1.28 -1.14,-1.82 z"
   inkscape:connector-curvature="0"
   style="fill:#000000;stroke-width:0" />
<path
   id="path3197"
   d="m 231.9,707.74 0,0.04 -0.01,0.03 0,0.03 -0.01,0.03 0,0.03 -0.01,0.04 -0.01,0.02 -0.02,0.03 -0.01,0.03 -0.01,0.03 -0.02,0.03 -0.02,0.02 -0.01,0.02 -0.02,0.03 -0.02,0.02 -0.02,0.02 -0.03,0.02 -0.02,0.02 -0.02,0.02 -0.03,0.02 -0.02,0.01 -0.03,0.02 -0.02,0.01 -0.03,0.01 -0.03,0.01 -0.03,0.01 -0.02,0.01 -0.03,0.01 -0.03,0 -0.03,0 -0.03,0.01 -0.03,0 c -0.38,0 -0.63,-0.31 -0.63,-0.62 0,-0.37 0.3,-0.63 0.62,-0.63 0.38,0 0.63,0.31 0.63,0.62 z"
   inkscape:connector-curvature="0"
   style="fill:#000000;stroke-width:0" />
<path
   id="path3199"
   d="m 238.61,710.16 0,0.17 -0.01,0.16 -0.02,0.17 -0.02,0.16 -0.02,0.16 -0.03,0.15 -0.04,0.15 -0.04,0.15 -0.04,0.14 -0.05,0.13 -0.05,0.14 -0.06,0.12 -0.06,0.13 -0.07,0.11 -0.06,0.12 -0.08,0.1 -0.07,0.1 -0.08,0.1 -0.08,0.09 -0.08,0.08 -0.09,0.08 -0.09,0.08 -0.09,0.06 -0.09,0.06 -0.09,0.06 -0.1,0.04 -0.1,0.04 -0.1,0.03 -0.1,0.03 -0.1,0.02 -0.1,0.01 -0.1,0 v -0.6 c 0.73,0 1.42,-0.98 1.42,-2.44 0,-1.47 -0.65,-2.64 -1.42,-2.64 h 0 c -0.78,0 -1.42,1.17 -1.42,2.64 0,1.45 0.68,2.44 1.42,2.44 v 0.6 c -1.12,0 -2.11,-1.33 -2.11,-3.14 0,-1.84 1.01,-3.14 2.11,-3.14 1.11,0 2.11,1.33 2.11,3.14 z"
   inkscape:connector-curvature="0"
   style="fill:#000000;stroke-width:0" />
<path
   id="path3201"
   d="m 244.73,709.55 -0.01,-0.01 0,-0.01 -0.01,-0.01 -0.01,-0.01 0,-0.01 -0.01,-0.01 -0.01,-0.01 0,-0.01 0,-0.01 -0.01,-0.01 0,-0.01 -0.01,-0.01 0,0 0,-0.01 0,-0.01 -0.01,-0.01 0,-0.01 0,-0.01 0,-0.01 0,-0.01 0,-0.01 -0.01,-0.01 0,-0.01 0,-0.01 0,-0.01 0,-0.01 0,-0.02 0,-0.01 0,-0.02 0,-0.01 0,-0.02 0,-0.02 c 0,-0.33 0.09,-0.4 0.4,-0.4 h 2.51 v -1.07 h -0.62 c -0.16,0 -0.4,0 -0.4,-0.31 0,-0.3 0.25,-0.3 0.4,-0.3 h 1.79 c 0.15,0 0.4,0 0.4,0.3 0,0.31 -0.24,0.31 -0.4,0.31 h -0.62 v 1.07 h 0.78 c 0.15,0 0.4,0 0.4,0.3 0,0.31 -0.24,0.31 -0.4,0.31 h -0.78 v 3.5 c 0,0.32 -0.06,0.4 -0.4,0.4 h -0.28 l 0.13,-0.43 v -3.47 h -2.21 l 2.21,3.47 -0.13,0.43 c -0.24,0 -0.29,-0.01 -0.42,-0.21 z"
   inkscape:connector-curvature="0"
   style="fill:#000000;stroke-width:0" />
<path
   id="path3203"
   d="m 252.82,707.74 0,0.04 -0.01,0.03 0,0.03 -0.01,0.03 0,0.03 -0.01,0.04 -0.01,0.02 -0.01,0.03 -0.02,0.03 -0.01,0.03 -0.02,0.03 -0.01,0.02 -0.02,0.02 -0.02,0.03 -0.02,0.02 -0.02,0.02 -0.02,0.02 -0.03,0.02 -0.02,0.02 -0.02,0.02 -0.03,0.01 -0.03,0.02 -0.02,0.01 -0.03,0.01 -0.03,0.01 -0.02,0.01 -0.03,0.01 -0.03,0.01 -0.03,0 -0.03,0 -0.03,0.01 -0.03,0 c -0.38,0 -0.63,-0.31 -0.63,-0.62 0,-0.37 0.3,-0.63 0.62,-0.63 0.38,0 0.63,0.31 0.63,0.62 z"
   inkscape:connector-curvature="0"
   style="fill:#000000;stroke-width:0" />
<path
   id="path3205"
   d="m 257.57,710.99 -0.07,0 -0.06,0 -0.07,-0.01 -0.08,-0.01 -0.07,0 -0.07,-0.01 -0.08,-0.02 -0.07,-0.01 -0.08,-0.02 -0.08,-0.02 -0.08,-0.03 -0.07,-0.02 -0.08,-0.03 -0.08,-0.03 -0.08,-0.04 -0.07,-0.04 v 1.89 h 2.38 c 0.15,0 0.4,0 0.4,0.3 0,0.31 -0.24,0.31 -0.4,0.31 h -2.67 c -0.33,0 -0.4,-0.1 -0.4,-0.41 v -2.64 c 0,-0.18 0,-0.41 0.32,-0.41 0.18,0 0.22,0.05 0.3,0.15 0.27,0.31 0.67,0.49 1.25,0.49 0.82,0 1.26,-0.72 1.26,-1.37 0,-0.79 -0.7,-1.39 -1.54,-1.39 -0.28,0 -0.91,0.08 -1.19,0.63 0.05,0.05 0.13,0.12 0.13,0.32 0,0.28 -0.23,0.44 -0.44,0.44 -0.15,0 -0.45,-0.09 -0.45,-0.47 0,-0.83 0.84,-1.52 1.95,-1.52 1.24,0 2.23,0.89 2.23,1.99 0,1.01 -0.77,1.98 -1.94,1.98 z"
   inkscape:connector-curvature="0"
   style="fill:#000000;stroke-width:0" />
<path
   id="path3207"
   d="m 268.67,710.39 0.07,0.03 0.07,0.03 0.07,0.02 0.07,0.03 0.06,0.03 0.07,0.04 0.06,0.03 0.06,0.03 0.05,0.04 0.06,0.03 0.05,0.04 0.05,0.04 0.05,0.04 0.04,0.04 0.05,0.04 0.04,0.04 0.04,0.04 0.03,0.05 0.04,0.04 0.03,0.05 0.03,0.04 0.02,0.05 0.03,0.05 0.02,0.05 0.02,0.05 0.01,0.04 0.02,0.06 0.01,0.05 0.01,0.05 0.01,0.05 0,0.05 0,0.05 c 0,0.82 -0.84,1.59 -2.03,1.59 v -0.6 c 0.78,0 1.35,-0.48 1.35,-0.99 0,-0.57 -0.62,-1.01 -1.35,-1.01 v -0.61 c 0.92,0 1.48,-0.62 1.48,-1.23 0,-0.68 -0.65,-1.24 -1.48,-1.24 h 0 c -0.82,0 -1.48,0.56 -1.48,1.24 0,0.61 0.58,1.23 1.48,1.23 v 0.61 h 0 c -0.73,0 -1.34,0.45 -1.34,1.01 0,0.51 0.56,0.99 1.34,0.99 v 0.6 c -1.19,0 -2.03,-0.78 -2.03,-1.59 0,-0.56 0.46,-1.06 1.25,-1.32 -0.75,-0.21 -1.39,-0.79 -1.39,-1.54 0,-0.96 0.93,-1.83 2.17,-1.83 1.26,0 2.17,0.87 2.17,1.83 0,0.75 -0.65,1.33 -1.38,1.54 z"
   inkscape:connector-curvature="0"
   style="fill:#000000;stroke-width:0" />
<path
   id="path3209"
   d="m 273.74,707.74 0,0.04 0,0.03 -0.01,0.03 0,0.03 -0.01,0.03 -0.01,0.04 -0.01,0.02 -0.01,0.03 -0.02,0.03 -0.01,0.03 -0.02,0.03 -0.01,0.02 -0.02,0.02 -0.02,0.03 -0.02,0.02 -0.02,0.02 -0.02,0.02 -0.02,0.02 -0.03,0.02 -0.02,0.02 -0.03,0.01 -0.02,0.02 -0.03,0.01 -0.03,0.01 -0.02,0.01 -0.03,0.01 -0.03,0.01 -0.03,0.01 -0.03,0 -0.03,0 -0.03,0.01 -0.03,0 c -0.38,0 -0.63,-0.31 -0.63,-0.62 0,-0.37 0.3,-0.63 0.62,-0.63 0.38,0 0.63,0.31 0.63,0.62 z"
   inkscape:connector-curvature="0"
   style="fill:#000000;stroke-width:0" />
<path
   id="path3211"
   d="m 279.13,710.39 0.07,0.03 0.07,0.03 0.07,0.02 0.07,0.03 0.07,0.03 0.06,0.04 0.06,0.03 0.06,0.03 0.05,0.04 0.06,0.03 0.05,0.04 0.05,0.04 0.05,0.04 0.04,0.04 0.05,0.04 0.04,0.04 0.04,0.04 0.03,0.05 0.04,0.04 0.03,0.05 0.03,0.04 0.02,0.05 0.03,0.05 0.02,0.05 0.02,0.05 0.02,0.04 0.01,0.06 0.01,0.05 0.01,0.05 0.01,0.05 0,0.05 0,0.05 c 0,0.82 -0.84,1.59 -2.03,1.59 v -0.6 c 0.78,0 1.34,-0.48 1.34,-0.99 0,-0.57 -0.61,-1.01 -1.34,-1.01 v -0.61 c 0.92,0 1.49,-0.62 1.49,-1.23 0,-0.68 -0.66,-1.24 -1.49,-1.24 h 0 c -0.82,0 -1.48,0.56 -1.48,1.24 0,0.61 0.58,1.23 1.48,1.23 v 0.61 h 0 c -0.72,0 -1.34,0.45 -1.34,1.01 0,0.51 0.56,0.99 1.34,0.99 v 0.6 c -1.19,0 -2.03,-0.78 -2.03,-1.59 0,-0.56 0.46,-1.06 1.25,-1.32 -0.75,-0.21 -1.39,-0.79 -1.39,-1.54 0,-0.96 0.93,-1.83 2.17,-1.83 1.26,0 2.17,0.87 2.17,1.83 0,0.75 -0.65,1.33 -1.38,1.54 z"
   inkscape:connector-curvature="0"
   style="fill:#000000;stroke-width:0" />
</g>      <g
         id="content"
         transform="matrix(1,0,0,-1,-217.39339,723.9399)"
         xml:space="preserve"
         stroke-miterlimit="10.433"
         font-style="normal"
         font-variant="normal"
         font-weight="normal"
         font-stretch="normal"
         font-size-adjust="none"
         letter-spacing="normal"
         word-spacing="normal"
         ns0:text="\\begin{verbatim}\n1.0\t3.4\t9.3\n\\end{verbatim}"
         ns0:preamble=""
         style="font-style:normal;font-variant:normal;font-weight:normal;font-stretch:normal;letter-spacing:normal;word-spacing:normal;text-anchor:start;fill:none;stroke:#000000;stroke-linecap:butt;stroke-linejoin:miter;stroke-miterlimit:10.43299961;stroke-opacity:1;stroke-dasharray:none;stroke-dashoffset:0">
<path
   style="fill:#000000;stroke-width:0"
   inkscape:connector-curvature="0"
   d="m 226.53,712.9 0,0.01 0,0.02 0,0.01 0,0.02 -0.01,0.03 0,0.02 0,0.02 0,0.01 0,0.02 -0.01,0.02 0,0.02 0,0.01 -0.01,0.02 0,0.01 -0.01,0.02 -0.01,0.01 -0.01,0.02 -0.01,0.01 -0.01,0.02 -0.01,0.01 -0.01,0.01 -0.01,0.01 0,0 -0.01,0.01 -0.01,0 -0.01,0.01 -0.01,0 0,0.01 -0.01,0 -0.01,0 -0.01,0.01 -0.01,0 -0.01,0 -0.01,0.01 -0.02,0 -0.01,0 -0.01,0 -0.01,0 -0.01,0 -0.02,0 -0.01,0 c -0.19,0 -0.25,-0.12 -0.3,-0.23 -0.38,-0.85 -0.9,-0.96 -1.08,-0.98 -0.16,-0.01 -0.37,-0.03 -0.37,-0.31 0,-0.24 0.18,-0.29 0.32,-0.29 0.19,0 0.6,0.06 1.04,0.43 v -4.19 h -0.91 c -0.16,0 -0.39,0 -0.39,-0.31 0,-0.3 0.25,-0.3 0.39,-0.3 h 2.5 c 0.15,0 0.4,0 0.4,0.3 0,0.31 -0.24,0.31 -0.4,0.31 h -0.9 z"
   id="path3255" />
<path
   style="fill:#000000;stroke-width:0"
   inkscape:connector-curvature="0"
   d="m 231.9,707.74 0,0.04 -0.01,0.03 0,0.03 -0.01,0.03 0,0.03 -0.01,0.04 -0.01,0.02 -0.02,0.03 -0.01,0.03 -0.01,0.03 -0.02,0.03 -0.02,0.02 -0.01,0.02 -0.02,0.03 -0.02,0.02 -0.02,0.02 -0.03,0.02 -0.02,0.02 -0.02,0.02 -0.03,0.02 -0.02,0.01 -0.03,0.02 -0.02,0.01 -0.03,0.01 -0.03,0.01 -0.03,0.01 -0.02,0.01 -0.03,0.01 -0.03,0 -0.03,0 -0.03,0.01 -0.03,0 c -0.38,0 -0.63,-0.31 -0.63,-0.62 0,-0.37 0.3,-0.63 0.62,-0.63 0.38,0 0.63,0.31 0.63,0.62 z"
   id="path3257" />
<path
   style="fill:#000000;stroke-width:0"
   inkscape:connector-curvature="0"
   d="m 238.61,710.16 0,0.17 -0.01,0.16 -0.02,0.17 -0.02,0.16 -0.02,0.16 -0.03,0.15 -0.04,0.15 -0.04,0.15 -0.04,0.14 -0.05,0.13 -0.05,0.14 -0.06,0.12 -0.06,0.13 -0.07,0.11 -0.06,0.12 -0.08,0.1 -0.07,0.1 -0.08,0.1 -0.08,0.09 -0.08,0.08 -0.09,0.08 -0.09,0.08 -0.09,0.06 -0.09,0.06 -0.09,0.06 -0.1,0.04 -0.1,0.04 -0.1,0.03 -0.1,0.03 -0.1,0.02 -0.1,0.01 -0.1,0 v -0.6 c 0.73,0 1.42,-0.98 1.42,-2.44 0,-1.47 -0.65,-2.64 -1.42,-2.64 h 0 c -0.78,0 -1.42,1.17 -1.42,2.64 0,1.45 0.68,2.44 1.42,2.44 v 0.6 c -1.12,0 -2.11,-1.33 -2.11,-3.14 0,-1.84 1.01,-3.14 2.11,-3.14 1.11,0 2.11,1.33 2.11,3.14 z"
   id="path3259" />
<path
   style="fill:#000000;stroke-width:0"
   inkscape:connector-curvature="0"
   d="m 248.01,710.44 0.05,0.04 0.05,0.03 0.04,0.04 0.05,0.04 0.05,0.04 0.04,0.03 0.04,0.05 0.04,0.04 0.04,0.04 0.04,0.04 0.03,0.05 0.03,0.04 0.04,0.05 0.03,0.04 0.02,0.05 0.03,0.05 0.03,0.04 0.02,0.05 0.02,0.05 0.02,0.05 0.02,0.05 0.02,0.05 0.01,0.05 0.02,0.05 0.01,0.05 0.01,0.05 0.01,0.05 0.01,0.05 0,0.05 0.01,0.05 0,0.05 0,0.05 c 0,0.74 -0.73,1.4 -1.87,1.4 -1.19,0 -1.89,-0.47 -1.89,-1.16 0,-0.33 0.25,-0.47 0.45,-0.47 0.21,0 0.43,0.17 0.43,0.45 0,0.14 -0.06,0.24 -0.08,0.27 0.3,0.31 1.01,0.31 1.1,0.31 0.68,0 1.17,-0.36 1.17,-0.81 0,-0.3 -0.14,-0.64 -0.41,-0.86 -0.32,-0.26 -0.57,-0.28 -0.93,-0.3 -0.57,-0.04 -0.72,-0.04 -0.72,-0.33 0,-0.31 0.24,-0.31 0.4,-0.31 h 0.46 c 0.98,0 1.49,-0.66 1.49,-1.24 0,-0.6 -0.56,-1.23 -1.46,-1.23 -0.4,0 -1.16,0.11 -1.42,0.58 0.05,0.05 0.12,0.11 0.12,0.31 0,0.23 -0.19,0.43 -0.44,0.43 -0.23,0 -0.45,-0.15 -0.45,-0.46 0,-0.89 0.97,-1.46 2.19,-1.46 1.3,0 2.15,0.91 2.15,1.83 0,0.71 -0.47,1.3 -1.12,1.59 z"
   id="path3261" />
<path
   style="fill:#000000;stroke-width:0"
   inkscape:connector-curvature="0"
   d="m 252.82,707.74 0,0.04 -0.01,0.03 0,0.03 -0.01,0.03 0,0.03 -0.01,0.04 -0.01,0.02 -0.01,0.03 -0.02,0.03 -0.01,0.03 -0.02,0.03 -0.01,0.02 -0.02,0.02 -0.02,0.03 -0.02,0.02 -0.02,0.02 -0.02,0.02 -0.03,0.02 -0.02,0.02 -0.02,0.02 -0.03,0.01 -0.03,0.02 -0.02,0.01 -0.03,0.01 -0.03,0.01 -0.02,0.01 -0.03,0.01 -0.03,0.01 -0.03,0 -0.03,0 -0.03,0.01 -0.03,0 c -0.38,0 -0.63,-0.31 -0.63,-0.62 0,-0.37 0.3,-0.63 0.62,-0.63 0.38,0 0.63,0.31 0.63,0.62 z"
   id="path3263" />
<path
   style="fill:#000000;stroke-width:0"
   inkscape:connector-curvature="0"
   d="m 255.19,709.55 -0.01,-0.01 0,-0.01 -0.01,-0.01 -0.01,-0.01 0,-0.01 -0.01,-0.01 0,-0.01 -0.01,-0.01 0,-0.01 -0.01,-0.01 0,-0.01 -0.01,-0.01 0,0 0,-0.01 0,-0.01 -0.01,-0.01 0,-0.01 0,-0.01 0,-0.01 0,-0.01 0,-0.01 0,-0.01 -0.01,-0.01 0,-0.01 0,-0.01 0,-0.01 0,-0.02 0,-0.01 0,-0.02 0,-0.01 0,-0.02 0,-0.02 c 0,-0.33 0.09,-0.4 0.4,-0.4 h 2.51 v -1.07 h -0.62 c -0.16,0 -0.4,0 -0.4,-0.31 0,-0.3 0.25,-0.3 0.4,-0.3 h 1.79 c 0.15,0 0.4,0 0.4,0.3 0,0.31 -0.24,0.31 -0.4,0.31 h -0.61 v 1.07 h 0.77 c 0.15,0 0.4,0 0.4,0.3 0,0.31 -0.24,0.31 -0.4,0.31 h -0.77 v 3.5 c 0,0.32 -0.08,0.4 -0.41,0.4 h -0.28 l 0.13,-0.43 v -3.47 h -2.21 l 2.21,3.47 -0.13,0.43 c -0.24,0 -0.29,-0.01 -0.42,-0.21 z"
   id="path3265" />
<path
   style="fill:#000000;stroke-width:0"
   inkscape:connector-curvature="0"
   d="m 269.25,709.84 -0.01,-0.12 -0.01,-0.11 -0.02,-0.11 -0.02,-0.11 -0.03,-0.11 -0.03,-0.1 -0.03,-0.11 -0.04,-0.1 -0.04,-0.1 -0.04,-0.09 -0.05,-0.1 -0.05,-0.09 -0.05,-0.08 -0.05,-0.09 -0.06,-0.08 -0.06,-0.07 -0.06,-0.08 -0.07,-0.07 -0.06,-0.06 -0.07,-0.06 -0.07,-0.06 -0.08,-0.05 -0.07,-0.05 -0.08,-0.05 -0.08,-0.03 -0.08,-0.04 -0.08,-0.03 -0.09,-0.02 -0.08,-0.02 -0.09,-0.02 -0.09,-0.01 -0.09,0 c -0.09,0 -0.44,0.01 -0.65,0.17 0.04,0.05 0.09,0.11 0.09,0.28 0,0.24 -0.18,0.44 -0.44,0.44 -0.25,0 -0.45,-0.17 -0.45,-0.47 0,-0.32 0.18,-1.02 1.45,-1.02 1.32,0 2.54,1.24 2.54,3.2 0,2.4 -1.1,3.08 -2.05,3.08 v -0.6 c 0.43,0 0.71,-0.23 0.87,-0.43 0.26,-0.33 0.37,-0.83 0.37,-0.89 0,-0.02 -0.01,-0.04 -0.01,-0.09 0,-0.05 0.04,-0.21 0.04,-0.3 0,-0.55 -0.53,-1.11 -1.36,-1.11 h 0 c -0.8,0 -1.33,0.66 -1.33,1.4 0,0.86 0.71,1.42 1.42,1.42 v 0.6 c -1.1,0 -2.11,-0.82 -2.11,-2.02 0,-1.13 0.88,-2.02 1.97,-2.02 0.52,0 1.04,0.17 1.48,0.58 z"
   id="path3267" />
<path
   style="fill:#000000;stroke-width:0"
   inkscape:connector-curvature="0"
   d="m 273.74,707.74 0,0.04 0,0.03 -0.01,0.03 0,0.03 -0.01,0.03 -0.01,0.04 -0.01,0.02 -0.01,0.03 -0.02,0.03 -0.01,0.03 -0.02,0.03 -0.01,0.02 -0.02,0.02 -0.02,0.03 -0.02,0.02 -0.02,0.02 -0.02,0.02 -0.02,0.02 -0.03,0.02 -0.02,0.02 -0.03,0.01 -0.02,0.02 -0.03,0.01 -0.03,0.01 -0.02,0.01 -0.03,0.01 -0.03,0.01 -0.03,0.01 -0.03,0 -0.03,0 -0.03,0.01 -0.03,0 c -0.38,0 -0.63,-0.31 -0.63,-0.62 0,-0.37 0.3,-0.63 0.62,-0.63 0.38,0 0.63,0.31 0.63,0.62 z"
   id="path3269" />
<path
   style="fill:#000000;stroke-width:0"
   inkscape:connector-curvature="0"
   d="m 279.39,710.44 0.05,0.04 0.05,0.03 0.05,0.04 0.04,0.04 0.05,0.04 0.04,0.03 0.04,0.05 0.04,0.04 0.04,0.04 0.04,0.04 0.03,0.05 0.04,0.04 0.03,0.05 0.03,0.04 0.03,0.05 0.02,0.05 0.03,0.04 0.02,0.05 0.02,0.05 0.03,0.05 0.01,0.05 0.02,0.05 0.02,0.05 0.01,0.05 0.01,0.05 0.01,0.05 0.01,0.05 0.01,0.05 0.01,0.05 0,0.05 0,0.05 0,0.05 c 0,0.74 -0.72,1.4 -1.87,1.4 -1.19,0 -1.89,-0.47 -1.89,-1.16 0,-0.33 0.25,-0.47 0.45,-0.47 0.21,0 0.44,0.17 0.44,0.45 0,0.14 -0.06,0.24 -0.09,0.27 0.31,0.31 1.01,0.31 1.1,0.31 0.68,0 1.18,-0.36 1.18,-0.81 0,-0.3 -0.15,-0.64 -0.42,-0.86 -0.32,-0.26 -0.57,-0.28 -0.93,-0.3 -0.56,-0.04 -0.71,-0.04 -0.71,-0.33 0,-0.31 0.23,-0.31 0.39,-0.31 h 0.46 c 0.99,0 1.5,-0.66 1.5,-1.24 0,-0.6 -0.56,-1.23 -1.47,-1.23 -0.4,0 -1.16,0.11 -1.42,0.58 0.05,0.05 0.12,0.11 0.12,0.31 0,0.23 -0.19,0.43 -0.44,0.43 -0.23,0 -0.45,-0.15 -0.45,-0.46 0,-0.89 0.97,-1.46 2.19,-1.46 1.31,0 2.15,0.91 2.15,1.83 0,0.71 -0.47,1.3 -1.12,1.59 z"
   id="path3271" />
</g>      <g
         style="font-style:normal;font-variant:normal;font-weight:normal;font-stretch:normal;letter-spacing:normal;word-spacing:normal;text-anchor:start;fill:none;stroke:#000000;stroke-linecap:butt;stroke-linejoin:miter;stroke-miterlimit:10.43299961;stroke-opacity:1;stroke-dasharray:none;stroke-dashoffset:0"
         ns0:preamble=""
         ns0:text="\\begin{verbatim}\n3.0\t5.9\t1.3\n\\end{verbatim}"
         word-spacing="normal"
         letter-spacing="normal"
         font-size-adjust="none"
         font-stretch="normal"
         font-weight="normal"
         font-variant="normal"
         font-style="normal"
         stroke-miterlimit="10.433"
         xml:space="preserve"
         transform="matrix(1,0,0,-1,-216.86339,745.19974)"
         id="g3478">
<path
   style="fill:#000000;stroke-width:0"
   inkscape:connector-curvature="0"
   id="path3480"
   d="m 227.08,710.44 0.05,0.04 0.05,0.03 0.05,0.04 0.05,0.04 0.04,0.04 0.05,0.03 0.04,0.05 0.04,0.04 0.04,0.04 0.03,0.04 0.04,0.05 0.03,0.04 0.03,0.05 0.03,0.04 0.03,0.05 0.03,0.05 0.03,0.04 0.02,0.05 0.02,0.05 0.02,0.05 0.02,0.05 0.02,0.05 0.01,0.05 0.02,0.05 0.01,0.05 0.01,0.05 0.01,0.05 0.01,0.05 0,0.05 0.01,0.05 0,0.05 0,0.05 c 0,0.74 -0.73,1.4 -1.87,1.4 -1.2,0 -1.89,-0.47 -1.89,-1.16 0,-0.33 0.25,-0.47 0.45,-0.47 0.21,0 0.43,0.17 0.43,0.45 0,0.14 -0.06,0.24 -0.09,0.27 0.31,0.31 1.02,0.31 1.11,0.31 0.68,0 1.17,-0.36 1.17,-0.81 0,-0.3 -0.15,-0.64 -0.41,-0.86 -0.32,-0.26 -0.57,-0.28 -0.93,-0.3 -0.57,-0.04 -0.72,-0.04 -0.72,-0.33 0,-0.31 0.24,-0.31 0.4,-0.31 h 0.46 c 0.98,0 1.49,-0.66 1.49,-1.24 0,-0.6 -0.56,-1.23 -1.46,-1.23 -0.4,0 -1.16,0.11 -1.42,0.58 0.05,0.05 0.12,0.11 0.12,0.31 0,0.23 -0.19,0.43 -0.44,0.43 -0.23,0 -0.45,-0.15 -0.45,-0.46 0,-0.89 0.97,-1.46 2.19,-1.46 1.3,0 2.15,0.91 2.15,1.83 0,0.71 -0.47,1.3 -1.13,1.59 z" />
<path
   style="fill:#000000;stroke-width:0"
   inkscape:connector-curvature="0"
   id="path3482"
   d="m 231.9,707.74 0,0.04 -0.01,0.03 0,0.03 -0.01,0.03 0,0.03 -0.01,0.04 -0.01,0.02 -0.02,0.03 -0.01,0.03 -0.01,0.03 -0.02,0.03 -0.02,0.02 -0.01,0.02 -0.02,0.03 -0.02,0.02 -0.02,0.02 -0.03,0.02 -0.02,0.02 -0.02,0.02 -0.03,0.02 -0.02,0.01 -0.03,0.02 -0.02,0.01 -0.03,0.01 -0.03,0.01 -0.03,0.01 -0.02,0.01 -0.03,0.01 -0.03,0 -0.03,0 -0.03,0.01 -0.03,0 c -0.38,0 -0.63,-0.31 -0.63,-0.62 0,-0.37 0.3,-0.63 0.62,-0.63 0.38,0 0.63,0.31 0.63,0.62 z" />
<path
   style="fill:#000000;stroke-width:0"
   inkscape:connector-curvature="0"
   id="path3484"
   d="m 238.61,710.16 0,0.17 -0.01,0.16 -0.02,0.17 -0.02,0.16 -0.02,0.16 -0.03,0.15 -0.04,0.15 -0.04,0.15 -0.04,0.14 -0.05,0.13 -0.05,0.14 -0.06,0.12 -0.06,0.13 -0.07,0.11 -0.06,0.12 -0.08,0.1 -0.07,0.1 -0.08,0.1 -0.08,0.09 -0.08,0.08 -0.09,0.08 -0.09,0.08 -0.09,0.06 -0.09,0.06 -0.09,0.06 -0.1,0.04 -0.1,0.04 -0.1,0.03 -0.1,0.03 -0.1,0.02 -0.1,0.01 -0.1,0 v -0.6 c 0.73,0 1.42,-0.98 1.42,-2.44 0,-1.47 -0.65,-2.64 -1.42,-2.64 h 0 c -0.78,0 -1.42,1.17 -1.42,2.64 0,1.45 0.68,2.44 1.42,2.44 v 0.6 c -1.12,0 -2.11,-1.33 -2.11,-3.14 0,-1.84 1.01,-3.14 2.11,-3.14 1.11,0 2.11,1.33 2.11,3.14 z" />
<path
   style="fill:#000000;stroke-width:0"
   inkscape:connector-curvature="0"
   id="path3486"
   d="m 247.11,710.99 -0.07,0 -0.07,0 -0.07,-0.01 -0.07,-0.01 -0.07,0 -0.07,-0.01 -0.08,-0.02 -0.08,-0.01 -0.07,-0.02 -0.08,-0.02 -0.08,-0.03 -0.08,-0.02 -0.07,-0.03 -0.08,-0.03 -0.08,-0.04 -0.08,-0.04 v 1.89 h 2.39 c 0.15,0 0.4,0 0.4,0.3 0,0.31 -0.24,0.31 -0.4,0.31 h -2.67 c -0.33,0 -0.4,-0.1 -0.4,-0.41 v -2.64 c 0,-0.18 0,-0.41 0.32,-0.41 0.18,0 0.22,0.05 0.3,0.15 0.26,0.31 0.67,0.49 1.25,0.49 0.81,0 1.26,-0.72 1.26,-1.37 0,-0.79 -0.7,-1.39 -1.54,-1.39 -0.28,0 -0.92,0.08 -1.19,0.63 0.05,0.05 0.13,0.12 0.13,0.32 0,0.28 -0.23,0.44 -0.44,0.44 -0.15,0 -0.45,-0.09 -0.45,-0.47 0,-0.83 0.84,-1.52 1.95,-1.52 1.24,0 2.23,0.89 2.23,1.99 0,1.01 -0.77,1.98 -1.94,1.98 z" />
<path
   style="fill:#000000;stroke-width:0"
   inkscape:connector-curvature="0"
   id="path3488"
   d="m 252.82,707.74 0,0.04 -0.01,0.03 0,0.03 -0.01,0.03 0,0.03 -0.01,0.04 -0.01,0.02 -0.01,0.03 -0.02,0.03 -0.01,0.03 -0.02,0.03 -0.01,0.02 -0.02,0.02 -0.02,0.03 -0.02,0.02 -0.02,0.02 -0.02,0.02 -0.03,0.02 -0.02,0.02 -0.02,0.02 -0.03,0.01 -0.03,0.02 -0.02,0.01 -0.03,0.01 -0.03,0.01 -0.02,0.01 -0.03,0.01 -0.03,0.01 -0.03,0 -0.03,0 -0.03,0.01 -0.03,0 c -0.38,0 -0.63,-0.31 -0.63,-0.62 0,-0.37 0.3,-0.63 0.62,-0.63 0.38,0 0.63,0.31 0.63,0.62 z" />
<path
   style="fill:#000000;stroke-width:0"
   inkscape:connector-curvature="0"
   id="path3490"
   d="m 258.79,709.84 -0.01,-0.12 -0.01,-0.11 -0.02,-0.11 -0.02,-0.11 -0.03,-0.11 -0.03,-0.1 -0.03,-0.11 -0.04,-0.1 -0.04,-0.1 -0.04,-0.09 -0.05,-0.1 -0.05,-0.09 -0.05,-0.08 -0.05,-0.09 -0.06,-0.08 -0.06,-0.07 -0.06,-0.08 -0.07,-0.07 -0.07,-0.06 -0.06,-0.06 -0.08,-0.06 -0.07,-0.05 -0.07,-0.05 -0.08,-0.05 -0.08,-0.03 -0.08,-0.04 -0.08,-0.03 -0.09,-0.02 -0.08,-0.02 -0.09,-0.02 -0.09,-0.01 -0.09,0 c -0.09,0 -0.44,0.01 -0.65,0.17 0.04,0.05 0.09,0.11 0.09,0.28 0,0.24 -0.18,0.44 -0.44,0.44 -0.25,0 -0.45,-0.17 -0.45,-0.47 0,-0.32 0.18,-1.02 1.45,-1.02 1.32,0 2.54,1.24 2.54,3.2 0,2.4 -1.1,3.08 -2.05,3.08 v -0.6 c 0.43,0 0.71,-0.23 0.87,-0.43 0.26,-0.33 0.37,-0.83 0.37,-0.89 0,-0.02 -0.01,-0.04 -0.01,-0.09 0,-0.05 0.04,-0.21 0.04,-0.3 0,-0.55 -0.53,-1.11 -1.36,-1.11 h 0 c -0.81,0 -1.33,0.66 -1.33,1.4 0,0.86 0.7,1.42 1.42,1.42 v 0.6 c -1.1,0 -2.11,-0.82 -2.11,-2.02 0,-1.13 0.88,-2.02 1.97,-2.02 0.52,0 1.04,0.17 1.48,0.58 z" />
<path
   style="fill:#000000;stroke-width:0"
   inkscape:connector-curvature="0"
   id="path3492"
   d="m 268.37,712.9 0,0.01 0,0.02 0,0.01 0,0.02 0,0.03 0,0.02 -0.01,0.02 0,0.01 0,0.02 0,0.02 -0.01,0.02 0,0.01 -0.01,0.02 0,0.01 -0.01,0.02 -0.01,0.01 0,0.02 -0.01,0.01 -0.01,0.02 -0.02,0.01 -0.01,0.01 0,0.01 -0.01,0 -0.01,0.01 -0.01,0 0,0.01 -0.01,0 -0.01,0.01 -0.01,0 -0.01,0 -0.01,0.01 -0.01,0 -0.01,0 -0.01,0.01 -0.01,0 -0.01,0 -0.02,0 -0.01,0 -0.01,0 -0.02,0 -0.01,0 c -0.19,0 -0.25,-0.12 -0.3,-0.23 -0.38,-0.85 -0.89,-0.96 -1.08,-0.98 -0.16,-0.01 -0.37,-0.03 -0.37,-0.31 0,-0.24 0.18,-0.29 0.33,-0.29 0.19,0 0.59,0.06 1.03,0.43 v -4.19 h -0.9 c -0.16,0 -0.4,0 -0.4,-0.31 0,-0.3 0.25,-0.3 0.4,-0.3 h 2.49 c 0.15,0 0.4,0 0.4,0.3 0,0.31 -0.24,0.31 -0.4,0.31 h -0.9 z" />
<path
   style="fill:#000000;stroke-width:0"
   inkscape:connector-curvature="0"
   id="path3494"
   d="m 273.74,707.74 0,0.04 0,0.03 -0.01,0.03 0,0.03 -0.01,0.03 -0.01,0.04 -0.01,0.02 -0.01,0.03 -0.02,0.03 -0.01,0.03 -0.02,0.03 -0.01,0.02 -0.02,0.02 -0.02,0.03 -0.02,0.02 -0.02,0.02 -0.02,0.02 -0.02,0.02 -0.03,0.02 -0.02,0.02 -0.03,0.01 -0.02,0.02 -0.03,0.01 -0.03,0.01 -0.02,0.01 -0.03,0.01 -0.03,0.01 -0.03,0.01 -0.03,0 -0.03,0 -0.03,0.01 -0.03,0 c -0.38,0 -0.63,-0.31 -0.63,-0.62 0,-0.37 0.3,-0.63 0.62,-0.63 0.38,0 0.63,0.31 0.63,0.62 z" />
<path
   style="fill:#000000;stroke-width:0"
   inkscape:connector-curvature="0"
   id="path3496"
   d="m 279.39,710.44 0.05,0.04 0.05,0.03 0.05,0.04 0.04,0.04 0.05,0.04 0.04,0.03 0.04,0.05 0.04,0.04 0.04,0.04 0.04,0.04 0.03,0.05 0.04,0.04 0.03,0.05 0.03,0.04 0.03,0.05 0.02,0.05 0.03,0.04 0.02,0.05 0.02,0.05 0.03,0.05 0.01,0.05 0.02,0.05 0.02,0.05 0.01,0.05 0.01,0.05 0.01,0.05 0.01,0.05 0.01,0.05 0.01,0.05 0,0.05 0,0.05 0,0.05 c 0,0.74 -0.72,1.4 -1.87,1.4 -1.19,0 -1.89,-0.47 -1.89,-1.16 0,-0.33 0.25,-0.47 0.45,-0.47 0.21,0 0.44,0.17 0.44,0.45 0,0.14 -0.06,0.24 -0.09,0.27 0.31,0.31 1.01,0.31 1.1,0.31 0.68,0 1.18,-0.36 1.18,-0.81 0,-0.3 -0.15,-0.64 -0.42,-0.86 -0.32,-0.26 -0.57,-0.28 -0.93,-0.3 -0.56,-0.04 -0.71,-0.04 -0.71,-0.33 0,-0.31 0.23,-0.31 0.39,-0.31 h 0.46 c 0.99,0 1.5,-0.66 1.5,-1.24 0,-0.6 -0.56,-1.23 -1.47,-1.23 -0.4,0 -1.16,0.11 -1.42,0.58 0.05,0.05 0.12,0.11 0.12,0.31 0,0.23 -0.19,0.43 -0.44,0.43 -0.23,0 -0.45,-0.15 -0.45,-0.46 0,-0.89 0.97,-1.46 2.19,-1.46 1.31,0 2.15,0.91 2.15,1.83 0,0.71 -0.47,1.3 -1.12,1.59 z" />
</g>    </g>
    <path
       sodipodi:nodetypes="ccc"
       inkscape:original-d="m 99.212604,-3.5433298 0,-7.0866132 21.259836,0"
       inkscape:path-effect="#path-effect3846"
       inkscape:connector-curvature="0"
       id="path3844"
       d="m 99.212604,-10.629943 0,42.519679 m 21.259836,-42.519679 0,42.519679 m 21.25984,-42.519679 0,42.519679 m 21.25983,-42.519679 0,42.519679 m -63.779506,-42.519679 63.779506,0 m -63.779506,7.0866132 63.779506,0 m -63.779506,7.0866132 63.779506,0 m -63.779506,7.0866136 63.779506,0 m -63.779506,7.086613 63.779506,0 m -63.779506,7.086613 63.779506,0 m -63.779506,7.086613 63.779506,0"
       style="fill:none;stroke:#000000;stroke-width:0.5;stroke-linecap:butt;stroke-linejoin:miter;stroke-miterlimit:4;stroke-opacity:1;stroke-dasharray:none" />
    <path
       sodipodi:nodetypes="ccc"
       inkscape:original-d="m 99.212609,-3.5433288 0,-7.0866142 21.259831,0"
       inkscape:path-effect="#path-effect3846-2"
       inkscape:connector-curvature="0"
       id="path3844-2"
       d="m 99.212609,-10.629943 0,21.259843 m 21.259831,-21.259843 0,21.259843 m 21.25983,-21.259843 0,21.259843 m 21.25983,-21.259843 0,21.259843 m -63.779491,-21.259843 63.779491,0 m -63.779491,7.0866142 63.779491,0 m -63.779491,7.0866142 63.779491,0 M 99.212609,10.6299 l 63.779491,0"
       style="fill:#ff7070;fill-opacity:1;stroke:#ff0000;stroke-width:0.5;stroke-linecap:butt;stroke-linejoin:miter;stroke-miterlimit:4;stroke-opacity:1;stroke-dasharray:none" />
    <path
       sodipodi:nodetypes="cc"
       inkscape:connector-curvature="0"
       id="path5455"
       d="m 67.322835,-7.0866357 28.346456,0"
       style="fill:none;stroke:#000000;stroke-width:0.5;stroke-linecap:butt;stroke-linejoin:miter;stroke-miterlimit:4;stroke-opacity:1;stroke-dasharray:none;marker-end:url(#Arrow2Lend)" />
    <path
       inkscape:connector-curvature="0"
       id="path5457"
       d="m 67.322835,3.5432855 3.543307,0 0,-3.543307026667 24.803149,0"
       style="fill:none;stroke:#000000;stroke-width:0.5;stroke-linecap:butt;stroke-linejoin:miter;stroke-miterlimit:4;stroke-opacity:1;stroke-dasharray:none;marker-end:url(#Arrow2Lend)" />
    <g
       ns0:preamble=""
       ns0:text="original\\\\\ndata"
       word-spacing="normal"
       letter-spacing="normal"
       font-size-adjust="none"
       font-stretch="normal"
       font-weight="normal"
       font-variant="normal"
       font-style="normal"
       stroke-miterlimit="10.433"
       xml:space="preserve"
       transform="matrix(1,0,0,-1,-57.174567,724.6499)"
       id="g5719"
       style="font-style:normal;font-variant:normal;font-weight:normal;font-stretch:normal;letter-spacing:normal;word-spacing:normal;text-anchor:start;fill:none;stroke:#000000;stroke-linecap:butt;stroke-linejoin:miter;stroke-miterlimit:10.43299961;stroke-opacity:1;stroke-dasharray:none;stroke-dashoffset:0">
<path
   id="path5721"
   d="m 228.12,709.25 0,0.12 -0.01,0.12 -0.02,0.11 -0.02,0.12 -0.02,0.11 -0.03,0.11 -0.04,0.11 -0.04,0.1 -0.04,0.1 -0.05,0.1 -0.05,0.1 -0.06,0.09 -0.06,0.1 -0.07,0.08 -0.07,0.09 -0.07,0.08 -0.08,0.08 -0.08,0.07 -0.08,0.07 -0.09,0.06 -0.09,0.07 -0.09,0.05 -0.09,0.05 -0.1,0.05 -0.1,0.04 -0.1,0.04 -0.1,0.03 -0.11,0.03 -0.11,0.02 -0.11,0.01 -0.11,0.01 -0.11,0.01 -0.01,-0.22 c 0.44,0 0.86,-0.22 1.12,-0.65 0.26,-0.43 0.26,-1 0.26,-1.38 0,-0.36 0,-0.89 -0.22,-1.33 -0.22,-0.45 -0.65,-0.74 -1.15,-0.74 h 0 c -0.43,0 -0.87,0.21 -1.13,0.67 -0.25,0.44 -0.25,1.04 -0.25,1.4 0,0.39 0,0.92 0.23,1.36 0.27,0.46 0.74,0.67 1.14,0.67 l 0.01,0.22 c -1.24,0 -2.21,-1.09 -2.21,-2.33 0,-1.28 1.03,-2.23 2.2,-2.23 1.2,0 2.21,0.97 2.21,2.23 z"
   inkscape:connector-curvature="0"
   style="fill:#000000;stroke-width:0" />
<path
   id="path5723"
   d="m 230.07,710.42 v 1.1 l -1.38,-0.11 v -0.31 c 0.7,0 0.78,-0.07 0.78,-0.56 v -2.66 c 0,-0.45 -0.11,-0.45 -0.78,-0.45 v -0.31 c 0.39,0.02 0.86,0.04 1.14,0.04 0.39,0 0.86,0 1.26,-0.04 v 0.31 h -0.21 c -0.73,0 -0.76,0.11 -0.76,0.47 v 1.53 c 0,0.98 0.42,1.87 1.18,1.87 0.07,0 0.09,0 0.11,-0.01 -0.03,-0.01 -0.23,-0.13 -0.23,-0.39 0,-0.28 0.21,-0.43 0.43,-0.43 0.18,0 0.43,0.12 0.43,0.44 0,0.32 -0.31,0.61 -0.74,0.61 -0.73,0 -1.09,-0.67 -1.23,-1.1 z"
   inkscape:connector-curvature="0"
   style="fill:#000000;stroke-width:0" />
<path
   id="path5725"
   d="m 234.08,711.52 -1.4,-0.11 v -0.31 c 0.65,0 0.74,-0.06 0.74,-0.55 v -2.67 c 0,-0.45 -0.11,-0.45 -0.78,-0.45 v -0.31 c 0.32,0.02 0.86,0.04 1.1,0.04 0.35,0 0.69,-0.02 1.03,-0.04 v 0.31 c -0.65,0 -0.69,0.05 -0.69,0.44 z"
   inkscape:connector-curvature="0"
   style="fill:#000000;stroke-width:0" />
<path
   id="path5727"
   d="m 234.12,713.24 0,0.03 -0.01,0.03 0,0.03 -0.01,0.03 0,0.02 -0.01,0.03 -0.01,0.03 -0.01,0.02 -0.01,0.02 -0.01,0.03 -0.01,0.02 -0.02,0.02 -0.01,0.02 -0.02,0.02 -0.02,0.02 -0.01,0.02 -0.02,0.01 -0.02,0.02 -0.02,0.01 -0.02,0.02 -0.02,0.01 -0.03,0.01 -0.02,0.01 -0.02,0.01 -0.02,0.01 -0.03,0.01 -0.02,0.01 -0.03,0 -0.02,0.01 -0.03,0 -0.02,0 -0.03,0 c -0.31,0 -0.53,-0.27 -0.53,-0.53 0,-0.26 0.22,-0.52 0.53,-0.52 0.28,0 0.53,0.21 0.53,0.52 z"
   inkscape:connector-curvature="0"
   style="fill:#000000;stroke-width:0" />
<path
   id="path5729"
   d="m 236.14,708.45 0,0 0,0.01 0,0 0,0.01 0,0.01 0,0.01 0,0.01 0,0.01 0,0.01 0,0.01 0,0.02 0.01,0.01 0,0.01 0,0.02 0.01,0.01 0,0.02 0,0.02 0.01,0.01 0,0.02 0.01,0.02 0.01,0.02 0,0.01 0.01,0.02 0.01,0.02 0.01,0.02 0.01,0.02 0.01,0.02 0.01,0.02 0.01,0.02 0.02,0.02 0.01,0.01 0.02,0.02 c 0.39,-0.27 0.79,-0.31 0.98,-0.31 v 0.23 c -0.86,0 -0.86,1 -0.86,1.22 0,0.27 0.01,0.59 0.16,0.84 0.07,0.12 0.3,0.4 0.7,0.4 0.87,0 0.87,-1 0.87,-1.22 0,-0.27 -0.01,-0.59 -0.16,-0.84 -0.08,-0.12 -0.31,-0.4 -0.71,-0.4 h 0 v -0.23 c 0.93,0 1.61,0.69 1.61,1.45 0,0.37 -0.16,0.74 -0.4,0.97 0.35,0.34 0.71,0.39 0.89,0.39 0.02,0 0.07,0 0.1,-0.01 -0.11,-0.04 -0.16,-0.15 -0.16,-0.27 0,-0.17 0.13,-0.29 0.29,-0.29 0.1,0 0.29,0.07 0.29,0.3 0,0.17 -0.12,0.48 -0.51,0.48 -0.2,0 -0.64,-0.05 -1.05,-0.46 -0.42,0.33 -0.84,0.36 -1.06,0.36 -0.92,0 -1.61,-0.69 -1.61,-1.45 0,-0.44 0.22,-0.82 0.47,-1.03 -0.13,-0.15 -0.31,-0.47 -0.31,-0.82 0,-0.31 0.13,-0.69 0.44,-0.89 -0.6,-0.17 -0.92,-0.59 -0.92,-0.99 0,-0.72 0.99,-1.26 2.2,-1.26 l 0.01,0.23 c -1,0 -1.69,0.5 -1.69,1.03 0,0.46 0.38,0.82 0.82,0.85 h 0.58 c 0.86,0 1.97,0 1.97,-0.85 0,-0.54 -0.7,-1.03 -1.68,-1.03 h 0 l -0.01,-0.23 c 1.18,0 2.21,0.51 2.21,1.28 0,0.35 -0.14,0.85 -0.65,1.13 -0.52,0.28 -1.1,0.28 -1.71,0.28 -0.25,0 -0.67,0 -0.75,0.01 -0.31,0.04 -0.52,0.35 -0.52,0.67 z"
   inkscape:connector-curvature="0"
   style="fill:#000000;stroke-width:0" />
<path
   id="path5731"
   d="m 241.83,711.52 -1.4,-0.11 v -0.31 c 0.65,0 0.74,-0.06 0.74,-0.55 v -2.67 c 0,-0.45 -0.11,-0.45 -0.78,-0.45 v -0.31 c 0.32,0.02 0.86,0.04 1.1,0.04 0.35,0 0.69,-0.02 1.03,-0.04 v 0.31 c -0.65,0 -0.69,0.05 -0.69,0.44 z"
   inkscape:connector-curvature="0"
   style="fill:#000000;stroke-width:0" />
<path
   id="path5733"
   d="m 241.87,713.24 -0.01,0.03 0,0.03 0,0.03 -0.01,0.03 0,0.02 -0.01,0.03 -0.01,0.03 -0.01,0.02 -0.01,0.02 -0.01,0.03 -0.01,0.02 -0.02,0.02 -0.01,0.02 -0.02,0.02 -0.02,0.02 -0.01,0.02 -0.02,0.01 -0.02,0.02 -0.02,0.01 -0.02,0.02 -0.02,0.01 -0.03,0.01 -0.02,0.01 -0.02,0.01 -0.03,0.01 -0.02,0.01 -0.02,0.01 -0.03,0 -0.02,0.01 -0.03,0 -0.03,0 -0.02,0 c -0.31,0 -0.53,-0.27 -0.53,-0.53 0,-0.26 0.22,-0.52 0.53,-0.52 0.28,0 0.53,0.21 0.53,0.52 z"
   inkscape:connector-curvature="0"
   style="fill:#000000;stroke-width:0" />
<path
   id="path5735"
   d="m 243.93,710.54 v -2.66 c 0,-0.45 -0.11,-0.45 -0.78,-0.45 v -0.31 c 0.35,0.02 0.86,0.04 1.12,0.04 0.26,0 0.78,-0.02 1.12,-0.04 v 0.31 c -0.67,0 -0.78,0 -0.78,0.45 v 1.83 c 0,1.03 0.71,1.59 1.35,1.59 0.62,0 0.73,-0.54 0.73,-1.1 v -2.32 c 0,-0.45 -0.11,-0.45 -0.77,-0.45 v -0.31 c 0.34,0.02 0.85,0.04 1.12,0.04 0.26,0 0.78,-0.02 1.11,-0.04 v 0.31 c -0.51,0 -0.76,0 -0.77,0.3 v 1.9 c 0,0.85 0,1.16 -0.31,1.52 -0.14,0.17 -0.47,0.37 -1.04,0.37 -0.73,0 -1.2,-0.43 -1.48,-1.05 v 1.05 l -1.4,-0.11 v -0.31 c 0.7,0 0.78,-0.07 0.78,-0.56 z"
   inkscape:connector-curvature="0"
   style="fill:#000000;stroke-width:0" />
<path
   id="path5737"
   d="m 251.68,707.88 0,-0.04 0.01,-0.03 0.01,-0.04 0.01,-0.04 0.01,-0.04 0.01,-0.03 0.01,-0.04 0.01,-0.03 0.02,-0.04 0.01,-0.03 0.02,-0.04 0.02,-0.03 0.02,-0.03 0.02,-0.04 0.02,-0.03 0.03,-0.03 0.02,-0.02 0.03,-0.03 0.03,-0.03 0.03,-0.02 0.03,-0.02 0.03,-0.03 0.03,-0.02 0.03,-0.01 0.04,-0.02 0.03,-0.01 0.04,-0.02 0.04,-0.01 0.04,0 0.04,-0.01 0.04,0 0.05,0 c 0.2,0 0.81,0.13 0.81,0.94 v 0.56 h -0.25 v -0.56 c 0,-0.58 -0.25,-0.64 -0.36,-0.64 -0.32,0 -0.36,0.45 -0.36,0.5 v 1.99 c 0,0.41 0,0.8 -0.36,1.17 -0.39,0.39 -0.89,0.55 -1.36,0.55 -0.82,0 -1.51,-0.47 -1.51,-1.13 0,-0.29 0.2,-0.46 0.46,-0.46 0.28,0 0.46,0.19 0.46,0.45 0,0.12 -0.05,0.45 -0.51,0.46 0.27,0.35 0.76,0.46 1.08,0.46 0.48,0 1.05,-0.39 1.05,-1.27 v -0.37 -0.21 -0.99 c 0,-0.95 -0.72,-1.29 -1.16,-1.29 -0.49,0 -0.9,0.35 -0.9,0.85 0,0.54 0.42,1.37 2.06,1.43 h 0 v 0.21 c -0.51,-0.03 -1.2,-0.06 -1.83,-0.36 -0.75,-0.34 -0.99,-0.85 -0.99,-1.29 0,-0.81 0.96,-1.05 1.59,-1.05 0.65,0 1.11,0.39 1.3,0.86 z"
   inkscape:connector-curvature="0"
   style="fill:#000000;stroke-width:0" />
<path
   id="path5739"
   d="m 255.11,714.02 -1.43,-0.11 v -0.31 c 0.69,0 0.77,-0.07 0.77,-0.55 v -5.17 c 0,-0.45 -0.11,-0.45 -0.77,-0.45 v -0.31 c 0.33,0.02 0.85,0.04 1.1,0.04 0.25,0 0.74,-0.02 1.11,-0.04 v 0.31 c -0.67,0 -0.78,0 -0.78,0.45 z"
   inkscape:connector-curvature="0"
   style="fill:#000000;stroke-width:0" />
<path
   id="path5741"
   d="m 227.21,695.72 v -0.66 l 1.47,0.11 v 0.31 c -0.7,0 -0.78,0.07 -0.78,0.55 v 6.03 l -1.43,-0.1 v -0.31 c 0.69,0 0.77,-0.07 0.77,-0.56 v -2.14 c -0.29,0.35 -0.71,0.61 -1.25,0.61 l 0.04,-0.22 c 0.35,0 0.76,-0.15 1.07,-0.59 0.11,-0.17 0.11,-0.19 0.11,-0.37 h 0 v -2.04 c 0,-0.18 0,-0.2 -0.11,-0.37 -0.3,-0.47 -0.74,-0.69 -1.17,-0.69 -0.45,0 -0.81,0.26 -1.05,0.63 -0.25,0.41 -0.28,0.98 -0.28,1.39 0,0.36 0.02,0.96 0.3,1.41 0.21,0.3 0.59,0.63 1.13,0.63 l -0.04,0.22 c -1.17,0 -2.22,-0.97 -2.22,-2.25 0,-1.27 0.97,-2.25 2.11,-2.25 0.64,0 1.08,0.34 1.33,0.66 z"
   inkscape:connector-curvature="0"
   style="fill:#000000;stroke-width:0" />
<path
   id="path5743"
   d="m 232.28,695.92 0,-0.03 0.01,-0.04 0.01,-0.04 0.01,-0.03 0.01,-0.04 0.01,-0.04 0.01,-0.03 0.01,-0.04 0.02,-0.04 0.01,-0.03 0.02,-0.03 0.02,-0.04 0.02,-0.03 0.02,-0.03 0.02,-0.03 0.03,-0.03 0.02,-0.03 0.03,-0.03 0.03,-0.02 0.03,-0.03 0.03,-0.02 0.03,-0.02 0.03,-0.02 0.03,-0.02 0.04,-0.01 0.03,-0.02 0.04,-0.01 0.04,-0.01 0.04,-0.01 0.04,-0.01 0.04,0 0.05,0 c 0.2,0 0.81,0.14 0.81,0.94 v 0.56 h -0.25 v -0.56 c 0,-0.57 -0.24,-0.63 -0.36,-0.63 -0.32,0 -0.36,0.44 -0.36,0.49 v 1.99 c 0,0.42 0,0.81 -0.36,1.17 -0.39,0.39 -0.89,0.55 -1.36,0.55 -0.82,0 -1.51,-0.47 -1.51,-1.12 0,-0.3 0.2,-0.47 0.46,-0.47 0.28,0 0.46,0.2 0.46,0.46 0,0.12 -0.05,0.44 -0.51,0.46 0.27,0.34 0.76,0.45 1.08,0.45 0.48,0 1.05,-0.39 1.05,-1.27 v -0.37 -0.21 -0.99 c 0,-0.94 -0.72,-1.28 -1.16,-1.28 -0.49,0 -0.9,0.35 -0.9,0.84 0,0.55 0.42,1.37 2.06,1.43 h 0 v 0.21 c -0.51,-0.03 -1.2,-0.06 -1.83,-0.35 -0.75,-0.34 -1,-0.86 -1,-1.3 0,-0.8 0.97,-1.05 1.6,-1.05 0.65,0 1.11,0.4 1.3,0.86 z"
   inkscape:connector-curvature="0"
   style="fill:#000000;stroke-width:0" />
<path
   id="path5745"
   d="m 235.67,699.14 h 1.42 v 0.31 h -1.42 v 1.83 h -0.25 c -0.01,-0.81 -0.31,-1.88 -1.28,-1.92 v -0.22 h 0.84 v -2.74 c 0,-1.22 0.93,-1.34 1.29,-1.34 0.7,0 0.98,0.71 0.98,1.34 v 0.57 H 237 v -0.55 c 0,-0.73 -0.3,-1.11 -0.66,-1.11 -0.67,0 -0.67,0.9 -0.67,1.07 z"
   inkscape:connector-curvature="0"
   style="fill:#000000;stroke-width:0" />
<path
   id="path5747"
   d="m 241.14,695.92 0,-0.03 0.01,-0.04 0,-0.04 0.01,-0.03 0.01,-0.04 0.01,-0.04 0.01,-0.03 0.02,-0.04 0.01,-0.04 0.02,-0.03 0.02,-0.03 0.02,-0.04 0.02,-0.03 0.02,-0.03 0.02,-0.03 0.02,-0.03 0.03,-0.03 0.03,-0.03 0.02,-0.02 0.03,-0.03 0.03,-0.02 0.03,-0.02 0.04,-0.02 0.03,-0.02 0.03,-0.01 0.04,-0.02 0.04,-0.01 0.04,-0.01 0.04,-0.01 0.04,-0.01 0.04,0 0.04,0 c 0.21,0 0.82,0.14 0.82,0.94 v 0.56 h -0.25 v -0.56 c 0,-0.57 -0.25,-0.63 -0.36,-0.63 -0.33,0 -0.37,0.44 -0.37,0.49 v 1.99 c 0,0.42 0,0.81 -0.35,1.17 -0.39,0.39 -0.89,0.55 -1.37,0.55 -0.81,0 -1.5,-0.47 -1.5,-1.12 0,-0.3 0.2,-0.47 0.46,-0.47 0.28,0 0.46,0.2 0.46,0.46 0,0.12 -0.05,0.44 -0.51,0.46 0.27,0.34 0.75,0.45 1.07,0.45 0.49,0 1.06,-0.39 1.06,-1.27 v -0.37 -0.21 -0.99 c 0,-0.94 -0.72,-1.28 -1.17,-1.28 -0.49,0 -0.89,0.35 -0.89,0.84 0,0.55 0.42,1.37 2.06,1.43 h 0 v 0.21 c -0.51,-0.03 -1.21,-0.06 -1.83,-0.35 -0.75,-0.34 -1,-0.86 -1,-1.3 0,-0.8 0.97,-1.05 1.59,-1.05 0.66,0 1.12,0.4 1.31,0.86 z"
   inkscape:connector-curvature="0"
   style="fill:#000000;stroke-width:0" />
</g>    <g
       style="font-style:normal;font-variant:normal;font-weight:normal;font-stretch:normal;letter-spacing:normal;word-spacing:normal;text-anchor:start;fill:#ff0000;fill-opacity:1;fill-rule:evenodd;stroke:#000000;stroke-linecap:butt;stroke-linejoin:miter;stroke-miterlimit:10.43299961;stroke-opacity:1;stroke-dasharray:none;stroke-dashoffset:0"
       ns0:preamble=""
       ns0:text="replaced\\\\\ndata"
       word-spacing="normal"
       letter-spacing="normal"
       font-size-adjust="none"
       font-stretch="normal"
       font-weight="normal"
       font-variant="normal"
       font-style="normal"
       stroke-miterlimit="10.433"
       xml:space="preserve"
       transform="matrix(1,0,0,-1,-57.234567,703.39006)"
       id="g3160">
<path
   id="path3162"
   d="m 225.09,710.42 v 1.1 l -1.38,-0.11 v -0.31 c 0.7,0 0.78,-0.07 0.78,-0.56 v -2.66 c 0,-0.45 -0.11,-0.45 -0.78,-0.45 v -0.31 c 0.39,0.02 0.86,0.04 1.14,0.04 0.39,0 0.86,0 1.26,-0.04 v 0.31 h -0.21 c -0.74,0 -0.76,0.11 -0.76,0.47 v 1.53 c 0,0.98 0.42,1.87 1.18,1.87 0.07,0 0.09,0 0.11,-0.01 -0.03,-0.01 -0.23,-0.13 -0.23,-0.39 0,-0.28 0.21,-0.43 0.43,-0.43 0.17,0 0.42,0.12 0.42,0.44 0,0.32 -0.31,0.61 -0.73,0.61 -0.73,0 -1.09,-0.67 -1.23,-1.1 z"
   style="fill:#ff0000;fill-opacity:1;stroke-width:0"
   inkscape:connector-curvature="0" />
<path
   id="path3164"
   d="m 228.44,709.42 0.01,0.21 c 0.06,1.48 0.89,1.73 1.23,1.73 1.03,0 1.13,-1.34 1.13,-1.73 h -2.36 l -0.01,-0.21 h 2.77 c 0.22,0 0.25,0 0.25,0.21 0,0.98 -0.53,1.95 -1.78,1.95 -1.15,0 -2.07,-1.03 -2.07,-2.27 0,-1.33 1.05,-2.29 2.19,-2.29 1.22,0 1.66,1.1 1.66,1.29 0,0.1 -0.08,0.12 -0.13,0.12 -0.09,0 -0.1,-0.06 -0.12,-0.14 -0.35,-1.03 -1.25,-1.03 -1.35,-1.03 -0.5,0 -0.89,0.3 -1.12,0.67 -0.3,0.48 -0.3,1.13 -0.3,1.49 z"
   style="fill:#ff0000;fill-opacity:1;stroke-width:0"
   inkscape:connector-curvature="0" />
<path
   id="path3166"
   d="m 233.47,710.86 v 0.66 l -1.43,-0.11 v -0.31 c 0.71,0 0.78,-0.06 0.78,-0.5 v -4.65 c 0,-0.44 -0.11,-0.44 -0.78,-0.44 v -0.31 c 0.34,0.01 0.86,0.03 1.11,0.03 0.27,0 0.78,-0.02 1.13,-0.03 v 0.31 c -0.67,0 -0.78,0 -0.78,0.44 v 1.67 0.09 l 0.14,0.13 c -0.14,0.21 -0.14,0.22 -0.14,0.42 h 0 v 2.21 c 0.29,0.51 0.78,0.8 1.29,0.8 0.72,0 1.33,-0.88 1.33,-2 0,-1.2 -0.7,-2.04 -1.43,-2.04 -0.4,0 -0.78,0.2 -1.05,0.61 l -0.14,-0.13 c 0.05,-0.16 0.47,-0.69 1.23,-0.69 1.18,0 2.22,0.97 2.22,2.25 0,1.26 -0.97,2.25 -2.08,2.25 -0.78,0 -1.2,-0.44 -1.4,-0.66 z"
   style="fill:#ff0000;fill-opacity:1;stroke-width:0"
   inkscape:connector-curvature="0" />
<path
   id="path3168"
   d="m 239.06,714.02 -1.44,-0.11 v -0.31 c 0.7,0 0.78,-0.07 0.78,-0.55 v -5.17 c 0,-0.45 -0.11,-0.45 -0.78,-0.45 v -0.31 c 0.33,0.02 0.86,0.04 1.11,0.04 0.25,0 0.74,-0.02 1.1,-0.04 v 0.31 c -0.66,0 -0.77,0 -0.77,0.45 z"
   style="fill:#ff0000;fill-opacity:1;stroke-width:0"
   inkscape:connector-curvature="0" />
<path
   id="path3170"
   d="m 243.38,707.88 0,-0.04 0.01,-0.03 0.01,-0.04 0,-0.04 0.01,-0.04 0.01,-0.03 0.02,-0.04 0.01,-0.03 0.01,-0.04 0.02,-0.03 0.02,-0.04 0.02,-0.03 0.02,-0.03 0.02,-0.04 0.02,-0.03 0.03,-0.03 0.02,-0.02 0.03,-0.03 0.02,-0.03 0.03,-0.02 0.03,-0.02 0.03,-0.03 0.04,-0.02 0.03,-0.01 0.04,-0.02 0.03,-0.01 0.04,-0.02 0.04,-0.01 0.04,0 0.04,-0.01 0.04,0 0.04,0 c 0.21,0 0.82,0.13 0.82,0.94 v 0.56 h -0.25 v -0.56 c 0,-0.58 -0.25,-0.64 -0.36,-0.64 -0.33,0 -0.37,0.45 -0.37,0.5 v 1.99 c 0,0.41 0,0.8 -0.35,1.17 -0.39,0.39 -0.89,0.55 -1.37,0.55 -0.81,0 -1.5,-0.47 -1.5,-1.13 0,-0.29 0.2,-0.46 0.46,-0.46 0.28,0 0.46,0.19 0.46,0.45 0,0.12 -0.05,0.45 -0.51,0.46 0.27,0.35 0.75,0.46 1.07,0.46 0.49,0 1.06,-0.39 1.06,-1.27 v -0.37 -0.21 -0.99 c 0,-0.95 -0.72,-1.29 -1.17,-1.29 -0.48,0 -0.89,0.35 -0.89,0.85 0,0.54 0.42,1.37 2.06,1.43 h 0 v 0.21 c -0.51,-0.03 -1.21,-0.06 -1.83,-0.36 -0.75,-0.34 -1,-0.85 -1,-1.29 0,-0.81 0.97,-1.05 1.59,-1.05 0.66,0 1.12,0.39 1.31,0.86 z"
   style="fill:#ff0000;fill-opacity:1;stroke-width:0"
   inkscape:connector-curvature="0" />
<path
   id="path3172"
   d="m 246.21,709.29 0,0.08 0,0.07 0.01,0.07 0,0.07 0,0.07 0.01,0.07 0.01,0.06 0.01,0.06 0.01,0.06 0.01,0.06 0.01,0.06 0.01,0.06 0.03,0.11 0.03,0.1 0.03,0.1 0.04,0.09 0.03,0.09 0.05,0.08 0.04,0.07 0.05,0.07 0.04,0.07 0.05,0.06 0.06,0.05 0.05,0.05 0.05,0.05 0.06,0.04 0.05,0.04 0.06,0.03 0.05,0.03 0.06,0.03 0.06,0.02 0.05,0.02 0.06,0.01 0.05,0.02 0.06,0.01 0.05,0 0.05,0.01 0.05,0 c 0.09,0 0.72,-0.01 1.07,-0.37 -0.41,-0.03 -0.47,-0.33 -0.47,-0.46 0,-0.26 0.18,-0.45 0.46,-0.45 0.26,0 0.46,0.16 0.46,0.46 0,0.68 -0.76,1.07 -1.53,1.07 -1.24,0 -2.16,-1.08 -2.16,-2.31 0,-1.27 0.99,-2.25 2.14,-2.25 1.34,0 1.66,1.19 1.66,1.29 0,0.1 -0.11,0.1 -0.14,0.1 -0.08,0 -0.1,-0.04 -0.12,-0.1 -0.29,-0.93 -0.94,-1.05 -1.31,-1.05 -0.52,0 -1.4,0.43 -1.4,2.03 z"
   style="fill:#ff0000;fill-opacity:1;stroke-width:0"
   inkscape:connector-curvature="0" />
<path
   id="path3174"
   d="m 250.58,709.42 0.01,0.21 c 0.06,1.48 0.89,1.73 1.23,1.73 1.03,0 1.13,-1.34 1.13,-1.73 h -2.36 l -0.01,-0.21 h 2.77 c 0.22,0 0.25,0 0.25,0.21 0,0.98 -0.53,1.95 -1.78,1.95 -1.15,0 -2.07,-1.03 -2.07,-2.27 0,-1.33 1.05,-2.29 2.19,-2.29 1.21,0 1.66,1.1 1.66,1.29 0,0.1 -0.08,0.12 -0.13,0.12 -0.09,0 -0.11,-0.06 -0.13,-0.14 -0.35,-1.03 -1.24,-1.03 -1.34,-1.03 -0.5,0 -0.9,0.3 -1.12,0.67 -0.3,0.48 -0.3,1.13 -0.3,1.49 z"
   style="fill:#ff0000;fill-opacity:1;stroke-width:0"
   inkscape:connector-curvature="0" />
<path
   id="path3176"
   d="m 257.68,707.67 v -0.65 l 1.46,0.1 v 0.31 c -0.69,0 -0.77,0.07 -0.77,0.56 v 6.03 l -1.44,-0.11 v -0.31 c 0.7,0 0.78,-0.07 0.78,-0.55 v -2.15 c -0.29,0.36 -0.72,0.62 -1.25,0.62 l 0.04,-0.22 c 0.35,0 0.76,-0.15 1.07,-0.6 0.11,-0.17 0.11,-0.19 0.11,-0.37 h 0 v -2.03 c 0,-0.18 0,-0.2 -0.11,-0.37 -0.3,-0.48 -0.74,-0.7 -1.17,-0.7 -0.45,0 -0.81,0.26 -1.05,0.64 -0.26,0.41 -0.28,0.97 -0.28,1.38 0,0.37 0.02,0.96 0.3,1.41 0.21,0.31 0.59,0.64 1.13,0.64 l -0.04,0.22 c -1.18,0 -2.22,-0.98 -2.22,-2.26 0,-1.26 0.97,-2.24 2.11,-2.24 0.63,0 1.08,0.33 1.33,0.65 z"
   style="fill:#ff0000;fill-opacity:1;stroke-width:0"
   inkscape:connector-curvature="0" />
<path
   id="path3178"
   d="m 227.21,695.72 v -0.66 l 1.47,0.11 v 0.31 c -0.7,0 -0.78,0.07 -0.78,0.55 v 6.03 l -1.43,-0.1 v -0.31 c 0.69,0 0.77,-0.07 0.77,-0.56 v -2.14 c -0.29,0.35 -0.71,0.61 -1.25,0.61 l 0.04,-0.22 c 0.35,0 0.76,-0.15 1.07,-0.59 0.11,-0.17 0.11,-0.19 0.11,-0.37 h 0 v -2.04 c 0,-0.18 0,-0.2 -0.11,-0.37 -0.3,-0.47 -0.74,-0.69 -1.17,-0.69 -0.45,0 -0.81,0.26 -1.05,0.63 -0.25,0.41 -0.28,0.98 -0.28,1.39 0,0.36 0.02,0.96 0.3,1.41 0.21,0.3 0.59,0.63 1.13,0.63 l -0.04,0.22 c -1.17,0 -2.22,-0.97 -2.22,-2.25 0,-1.27 0.97,-2.25 2.11,-2.25 0.64,0 1.08,0.34 1.33,0.66 z"
   style="fill:#ff0000;fill-opacity:1;stroke-width:0"
   inkscape:connector-curvature="0" />
<path
   id="path3180"
   d="m 232.28,695.92 0,-0.03 0.01,-0.04 0.01,-0.04 0.01,-0.03 0.01,-0.04 0.01,-0.04 0.01,-0.03 0.01,-0.04 0.02,-0.04 0.01,-0.03 0.02,-0.03 0.02,-0.04 0.02,-0.03 0.02,-0.03 0.02,-0.03 0.03,-0.03 0.02,-0.03 0.03,-0.03 0.03,-0.02 0.03,-0.03 0.03,-0.02 0.03,-0.02 0.03,-0.02 0.03,-0.02 0.04,-0.01 0.03,-0.02 0.04,-0.01 0.04,-0.01 0.04,-0.01 0.04,-0.01 0.04,0 0.05,0 c 0.2,0 0.81,0.14 0.81,0.94 v 0.56 h -0.25 v -0.56 c 0,-0.57 -0.24,-0.63 -0.36,-0.63 -0.32,0 -0.36,0.44 -0.36,0.49 v 1.99 c 0,0.42 0,0.81 -0.36,1.17 -0.39,0.39 -0.89,0.55 -1.36,0.55 -0.82,0 -1.51,-0.47 -1.51,-1.12 0,-0.3 0.2,-0.47 0.46,-0.47 0.28,0 0.46,0.2 0.46,0.46 0,0.12 -0.05,0.44 -0.51,0.46 0.27,0.34 0.76,0.45 1.08,0.45 0.48,0 1.05,-0.39 1.05,-1.27 v -0.37 -0.21 -0.99 c 0,-0.94 -0.72,-1.28 -1.16,-1.28 -0.49,0 -0.9,0.35 -0.9,0.84 0,0.55 0.42,1.37 2.06,1.43 h 0 v 0.21 c -0.51,-0.03 -1.2,-0.06 -1.83,-0.35 -0.75,-0.34 -1,-0.86 -1,-1.3 0,-0.8 0.97,-1.05 1.6,-1.05 0.65,0 1.11,0.4 1.3,0.86 z"
   style="fill:#ff0000;fill-opacity:1;stroke-width:0"
   inkscape:connector-curvature="0" />
<path
   id="path3182"
   d="m 235.67,699.14 h 1.42 v 0.31 h -1.42 v 1.83 h -0.25 c -0.01,-0.81 -0.31,-1.88 -1.28,-1.92 v -0.22 h 0.84 v -2.74 c 0,-1.22 0.93,-1.34 1.29,-1.34 0.7,0 0.98,0.71 0.98,1.34 v 0.57 H 237 v -0.55 c 0,-0.73 -0.3,-1.11 -0.66,-1.11 -0.67,0 -0.67,0.9 -0.67,1.07 z"
   style="fill:#ff0000;fill-opacity:1;stroke-width:0"
   inkscape:connector-curvature="0" />
<path
   id="path3184"
   d="m 241.14,695.92 0,-0.03 0.01,-0.04 0,-0.04 0.01,-0.03 0.01,-0.04 0.01,-0.04 0.01,-0.03 0.02,-0.04 0.01,-0.04 0.02,-0.03 0.02,-0.03 0.02,-0.04 0.02,-0.03 0.02,-0.03 0.02,-0.03 0.02,-0.03 0.03,-0.03 0.03,-0.03 0.02,-0.02 0.03,-0.03 0.03,-0.02 0.03,-0.02 0.04,-0.02 0.03,-0.02 0.03,-0.01 0.04,-0.02 0.04,-0.01 0.04,-0.01 0.04,-0.01 0.04,-0.01 0.04,0 0.04,0 c 0.21,0 0.82,0.14 0.82,0.94 v 0.56 h -0.25 v -0.56 c 0,-0.57 -0.25,-0.63 -0.36,-0.63 -0.33,0 -0.37,0.44 -0.37,0.49 v 1.99 c 0,0.42 0,0.81 -0.35,1.17 -0.39,0.39 -0.89,0.55 -1.37,0.55 -0.81,0 -1.5,-0.47 -1.5,-1.12 0,-0.3 0.2,-0.47 0.46,-0.47 0.28,0 0.46,0.2 0.46,0.46 0,0.12 -0.05,0.44 -0.51,0.46 0.27,0.34 0.75,0.45 1.07,0.45 0.49,0 1.06,-0.39 1.06,-1.27 v -0.37 -0.21 -0.99 c 0,-0.94 -0.72,-1.28 -1.17,-1.28 -0.49,0 -0.89,0.35 -0.89,0.84 0,0.55 0.42,1.37 2.06,1.43 h 0 v 0.21 c -0.51,-0.03 -1.21,-0.06 -1.83,-0.35 -0.75,-0.34 -1,-0.86 -1,-1.3 0,-0.8 0.97,-1.05 1.59,-1.05 0.66,0 1.12,0.4 1.31,0.86 z"
   style="fill:#ff0000;fill-opacity:1;stroke-width:0"
   inkscape:connector-curvature="0" />
</g>    <path
       inkscape:connector-curvature="0"
       id="path5457-2"
       d="m 67.322835,14.173207 3.543307,0 0,-7.0866144 24.803149,0"
       style="fill:none;stroke:#000000;stroke-width:0.5;stroke-linecap:butt;stroke-linejoin:miter;stroke-miterlimit:4;stroke-opacity:1;stroke-dasharray:none;marker-end:url(#Arrow2Lend)"
       sodipodi:nodetypes="cccc" />
  </g>
</svg>
